<?xml version="1.0" encoding="utf-8"?>
<!-- Generator: Adobe Illustrator 23.0.1, SVG Export Plug-In . SVG Version: 6.00 Build 0)  -->
<svg version="1.1" id="Слой_1" xmlns="http://www.w3.org/2000/svg" xmlns:xlink="http://www.w3.org/1999/xlink" x="0px" y="0px"
	 viewBox="0 0 34 26" style="enable-background:new 0 0 34 26;" xml:space="preserve">
<style type="text/css">
	.st0{fill:none;}
	.st1{fill:#E5E5E5;}
</style>
<rect class="st0" width="34" height="26"/>
<path class="st1" d="M8,8.9c2.5,0,4.5-2,4.5-4.4S10.5,0,8,0C5.6,0,3.6,2,3.6,4.4S5.6,8.9,8,8.9z"/>
<path class="st1" d="M16.1,11.1H0v6.2h16.1V11.1z"/>
<path class="st1" d="M26,17.5c2.5,0,4.5-2,4.5-4.4c0-2.4-2-4.4-4.5-4.4s-4.5,2-4.5,4.4C21.5,15.5,23.5,17.5,26,17.5z"/>
<path class="st1" d="M34,19.8H17.9V26H34V19.8z"/>
</svg>
