<?xml version="1.0" encoding="UTF-8"?><!DOCTYPE svg>
<svg width="50" height="50" viewBox="0 0 50 50" fill="none" xmlns="http://www.w3.org/2000/svg">
<path d="M16.8291 29.6842C19.5392 29.6842 21.7361 27.501 21.7361 24.8078C21.7361 22.1146 19.5392 19.9314 16.8291 19.9314C14.119 19.9314 11.9221 22.1146 11.9221 24.8078C11.9221 27.501 14.119 29.6842 16.8291 29.6842Z" fill="#E5E5E5"/>
<path d="M25.6407 32.166H8V38.9825H25.6407V32.166Z" fill="#E5E5E5"/>
<g clip-path="url(#clip0)">
<path d="M40.8115 13.146C39.4053 11.7664 37.4521 11 35.499 11C33.4678 11 31.5928 11.7664 30.1865 13.146C27.6084 15.7518 27.2178 20.5803 29.4834 23.4927L35.499 32L41.5146 23.4927C43.7021 20.5803 43.3896 15.7518 40.8115 13.146ZM35.5771 20.9635C34.0928 20.9635 32.8428 19.7372 32.8428 18.281C32.8428 16.8248 34.0146 15.5985 35.5771 15.5985C37.1396 15.5985 38.3115 16.8248 38.3115 18.281C38.3115 19.7372 37.0615 20.9635 35.5771 20.9635Z" fill="#E5E5E5"/>
</g>
<defs>
<clipPath id="clip0">
<rect width="15" height="21" fill="white" transform="translate(28 11)"/>
</clipPath>
</defs>
</svg>
