<?xml version="1.0" encoding="utf-8"?>
<!-- Generator: Adobe Illustrator 23.0.1, SVG Export Plug-In . SVG Version: 6.00 Build 0)  -->
<svg version="1.1" id="Слой_1" xmlns="http://www.w3.org/2000/svg" xmlns:xlink="http://www.w3.org/1999/xlink" x="0px" y="0px"
	 viewBox="0 0 35 28" style="enable-background:new 0 0 35 28;" xml:space="preserve">
<style type="text/css">
	.st0{fill:#E5E5E5;}
	.st1{fill:none;}
</style>
<path class="st0" d="M8.8,18.7c2.7,0,4.9-2.2,4.9-4.9c0-2.7-2.2-4.9-4.9-4.9c-2.7,0-4.9,2.2-4.9,4.9C3.9,16.5,6.1,18.7,8.8,18.7z"/>
<path class="st0" d="M17.6,21.2H0V28h17.6V21.2z"/>
<rect x="20" class="st1" width="15" height="21"/>
<g>
	<path class="st0" d="M32.8,2.1C31.4,0.8,29.5,0,27.5,0c-2,0-3.9,0.8-5.3,2.1c-2.6,2.6-3,7.4-0.7,10.3l6,8.5l6-8.5
		C35.7,9.6,35.4,4.8,32.8,2.1z M27.6,10c-1.5,0-2.7-1.2-2.7-2.7c0-1.5,1.2-2.7,2.7-2.7s2.7,1.2,2.7,2.7C30.3,8.7,29.1,10,27.6,10z"
		/>
</g>
</svg>
