<?xml version="1.0" encoding="utf-8"?>
<!-- Generator: Adobe Illustrator 23.0.1, SVG Export Plug-In . SVG Version: 6.00 Build 0)  -->
<svg version="1.1" id="Слой_1" xmlns="http://www.w3.org/2000/svg" xmlns:xlink="http://www.w3.org/1999/xlink" x="0px" y="0px"
	 viewBox="0 0 27 25" style="enable-background:new 0 0 27 25;" xml:space="preserve">
<style type="text/css">
	.st0{fill:#E5E5E5;}
</style>
<path class="st0" d="M27,7.5C26.6,3.1,23.5,0,19.7,0c-1.3,0-2.5,0.3-3.6,1c-1.1,0.6-2,1.5-2.6,2.6c-0.6-1.1-1.5-2-2.6-2.6
	C9.8,0.3,8.6,0,7.3,0C3.5,0,0.4,3.1,0,7.5c-0.1,1,0,1.9,0.2,2.8c0.6,2.4,1.9,4.6,3.7,6.2l9.4,8.5l9.6-8.5c1.9-1.6,3.2-3.8,3.7-6.2
	C27,9.4,27.1,8.4,27,7.5L27,7.5z"/>
</svg>
