<svg width="34" height="26" viewBox="0 0 34 26" fill="none" xmlns="http://www.w3.org/2000/svg">
<g clip-path="url(#clip0)">
<path d="M8.02807 8.86231C10.4916 8.86231 12.4886 6.87842 12.4886 4.43116C12.4886 1.9839 10.4916 0 8.02807 0C5.56457 0 3.5675 1.9839 3.5675 4.43116C3.5675 6.87842 5.56457 8.86231 8.02807 8.86231Z" fill="#1D1D1B"/>
<path d="M16.0562 11.1317H0V17.3349H16.0562V11.1317Z" fill="#1D1D1B"/>
<path d="M25.9741 17.5275C28.4376 17.5275 30.4347 15.5436 30.4347 13.0963C30.4347 10.6491 28.4376 8.66516 25.9741 8.66516C23.5106 8.66516 21.5135 10.6491 21.5135 13.0963C21.5135 15.5436 23.5106 17.5275 25.9741 17.5275Z" fill="#1D1D1B"/>
<path d="M34.0023 19.7969H17.946V26H34.0023V19.7969Z" fill="#1D1D1B"/>
</g>
<defs>
<clipPath id="clip0">
<rect width="34" height="26" fill="white"/>
</clipPath>
</defs>
</svg>
