<?xml version="1.0" encoding="UTF-8"?><!DOCTYPE svg>
<svg width="50" height="50" viewBox="0 0 50 50" fill="none" xmlns="http://www.w3.org/2000/svg">
<g clip-path="url(#clip0)">
<path d="M16.0281 19.8623C18.4916 19.8623 20.4887 17.8784 20.4887 15.4312C20.4887 12.9839 18.4916 11 16.0281 11C13.5646 11 11.5676 12.9839 11.5676 15.4312C11.5676 17.8784 13.5646 19.8623 16.0281 19.8623Z" fill="#1D1D1B"/>
<path d="M24.0562 22.1316H8V28.3348H24.0562V22.1316Z" fill="#1D1D1B"/>
<path d="M33.9741 28.5273C36.4376 28.5273 38.4347 26.5435 38.4347 24.0962C38.4347 21.6489 36.4376 19.665 33.9741 19.665C31.5106 19.665 29.5135 21.6489 29.5135 24.0962C29.5135 26.5435 31.5106 28.5273 33.9741 28.5273Z" fill="#1D1D1B"/>
<path d="M42.0022 30.7969H25.946V37H42.0022V30.7969Z" fill="#1D1D1B"/>
</g>
<defs>
<clipPath id="clip0">
<rect width="34" height="26" fill="white" transform="translate(8 11)"/>
</clipPath>
</defs>
</svg>
