<svg width="35" height="28" viewBox="0 0 35 28" fill="none" xmlns="http://www.w3.org/2000/svg">
<path d="M8.82915 18.6841C11.5392 18.6841 13.7362 16.5008 13.7362 13.8077C13.7362 11.1145 11.5392 8.93127 8.82915 8.93127C6.11907 8.93127 3.92212 11.1145 3.92212 13.8077C3.92212 16.5008 6.11907 18.6841 8.82915 18.6841Z" fill="black"/>
<path d="M17.6407 21.166H0V27.9825H17.6407V21.166Z" fill="black"/>
<g clip-path="url(#clip0)">
<path d="M32.8115 2.14599C31.4053 0.766423 29.4521 0 27.499 0C25.4678 0 23.5928 0.766423 22.1865 2.14599C19.6084 4.75182 19.2178 9.58029 21.4834 12.4927L27.499 21L33.5146 12.4927C35.7021 9.58029 35.3896 4.75182 32.8115 2.14599ZM27.5771 9.9635C26.0928 9.9635 24.8428 8.73723 24.8428 7.28102C24.8428 5.82482 26.0146 4.59854 27.5771 4.59854C29.1396 4.59854 30.3115 5.82482 30.3115 7.28102C30.3115 8.73723 29.0615 9.9635 27.5771 9.9635Z" fill="black"/>
</g>
<defs>
<clipPath id="clip0">
<rect width="15" height="21" fill="white" transform="translate(20)"/>
</clipPath>
</defs>
</svg>
