<?xml version="1.0" encoding="UTF-8"?><!DOCTYPE svg>
<svg width="50" height="50" viewBox="0 0 50 50" fill="none" xmlns="http://www.w3.org/2000/svg">
<path d="M37.9548 20.4791C37.5642 16.1362 34.4942 13 30.6579 13C29.3986 13.0075 28.1629 13.3404 27.0717 13.9662C25.9804 14.592 25.0711 15.4892 24.4328 16.57C23.8266 15.4921 22.9439 14.5937 21.8749 13.9665C20.8059 13.3393 19.5888 13.0058 18.348 13C14.5067 13 11.4367 16.1362 11.0411 20.4791C10.9429 21.4292 11.021 22.3891 11.2715 23.3111C11.8542 25.7129 13.1594 27.8803 15.0125 29.5237L24.4178 38L33.9883 29.5237C35.8415 27.8803 37.1467 25.7129 37.7294 23.3111C37.9826 22.3896 38.059 21.4288 37.9548 20.4791Z" fill="#1D1D1B"/>
</svg>
