<svg width="27" height="25" viewBox="0 0 27 25" fill="none" xmlns="http://www.w3.org/2000/svg">
<path d="M26.9548 7.47906C26.5642 3.13622 23.4942 0 19.6579 0C18.3986 0.00747535 17.1629 0.340414 16.0717 0.966216C14.9804 1.59202 14.0711 2.48923 13.4328 3.57C12.8266 2.49211 11.9439 1.59369 10.8749 0.966487C9.80585 0.339287 8.58879 0.00577273 7.34796 0C3.50672 0 0.436737 3.13622 0.0410942 7.47906C-0.0570787 8.42916 0.0210099 9.38914 0.271468 10.3111C0.854193 12.7129 2.15937 14.8803 4.01254 16.5237L13.4178 25L22.9883 16.5237C24.8415 14.8803 26.1467 12.7129 26.7294 10.3111C26.9826 9.38958 27.059 8.42879 26.9548 7.47906V7.47906Z" fill="#1D1D1B"/>
</svg>
