<?xml version="1.0" encoding="UTF-8"?><!DOCTYPE svg>
<svg width="50" height="50" viewBox="0 0 50 50" fill="none" xmlns="http://www.w3.org/2000/svg">
<path d="M11.0518 39H18.9197V34.365H21.3544V39H24.7391V9H11.0518V39ZM18.9346 11.325H21.3395V13.83H18.9346V11.325ZM18.9346 15.945H21.3395V18.45H18.9346V15.945ZM18.9346 20.55H21.3395V23.055H18.9346V20.55ZM18.9346 25.32H21.3395V27.825H18.9346V25.32ZM18.9346 29.835H21.3395V32.34H18.9346V29.835ZM14.4513 11.325H16.8562V13.83H14.4513V11.325ZM14.4513 15.945H16.8562V18.45H14.4513V15.945ZM14.4513 20.55H16.8562V23.055H14.4513V20.55ZM14.4513 25.32H16.8562V27.825H14.4513V25.32ZM14.4513 29.835H16.8562V32.34H14.4513V29.835ZM14.4365 34.365H16.8414V36.87H14.4365V34.365Z" fill="#1D1D1B"/>
<path d="M26.3126 18.4351V39.0001H34.1806V34.3651H36.6152V39.0001H39.9999V18.4351H26.3126ZM32.1023 36.8701H29.6973V34.3651H32.1023V36.8701ZM32.1171 32.3401H29.7122V29.8501H32.1171V32.3401ZM32.1171 27.8251H29.7122V25.3201H32.1171V27.8251ZM32.1171 23.0551H29.7122V20.5651H32.1171V23.0551ZM36.6004 32.3401H34.1954V29.8501H36.6004V32.3401ZM36.6004 27.8251H34.1954V25.3201H36.6004V27.8251ZM36.6004 23.0551H34.1954V20.5651H36.6004V23.0551Z" fill="#1D1D1B"/>
</svg>
