<svg width="300" height="300" viewBox="0 0 300 300" fill="none" xmlns="http://www.w3.org/2000/svg">
<circle cx="150" cy="150" r="150" fill="white"/>
<circle cx="150" cy="150" r="149.5" stroke="black" stroke-opacity="0.1"/>
<g clip-path="url(#clip0)">
<path d="M71.282 225H114.149V199.662H127.413V225H145.854V61H71.282V225ZM114.23 73.71H127.332V87.404H114.23V73.71ZM114.23 98.966H127.332V112.66H114.23V98.966ZM114.23 124.14H127.332V137.834H114.23V124.14ZM114.23 150.216H127.332V163.91H114.23V150.216ZM114.23 174.898H127.332V188.592H114.23V174.898ZM89.8037 73.71H102.906V87.404H89.8037V73.71ZM89.8037 98.966H102.906V112.66H89.8037V98.966ZM89.8037 124.14H102.906V137.834H89.8037V124.14ZM89.8037 150.216H102.906V163.91H89.8037V150.216ZM89.8037 174.898H102.906V188.592H89.8037V174.898ZM89.7228 199.662H102.826V213.356H89.7228V199.662Z" fill="#E5E5E5"/>
<path d="M154.427 112.578V225H197.294V199.662H210.559V225H228.999V112.578H154.427ZM185.971 213.356H172.868V199.662H185.971V213.356ZM186.052 188.592H172.949V174.98H186.052V188.592ZM186.052 163.91H172.949V150.216H186.052V163.91ZM186.052 137.834H172.949V124.222H186.052V137.834ZM210.478 188.592H197.375V174.98H210.478V188.592ZM210.478 163.91H197.375V150.216H210.478V163.91ZM210.478 137.834H197.375V124.222H210.478V137.834Z" fill="#E5E5E5"/>
</g>
<defs>
<clipPath id="clip0">
<rect x="71" y="61" width="158" height="164" fill="white"/>
</clipPath>
</defs>
</svg>
