<svg width="300" height="300" viewBox="0 0 300 300" fill="none" xmlns="http://www.w3.org/2000/svg">
<circle cx="150" cy="150" r="150" fill="#B9E4AD"/>
<g clip-path="url(#clip0)">
<path d="M232 206.14H68V225H232V206.14Z" fill="white"/>
<path d="M113.92 127.419H96.7V198.759H113.92V127.419Z" fill="white"/>
<path d="M159.84 127.419H142.62V198.759H159.84V127.419Z" fill="white"/>
<path d="M205.76 127.419H188.54V198.759H205.76V127.419Z" fill="white"/>
<path d="M150 60.7454C132.263 60.7477 115.002 66.4807 100.789 77.0902C86.5754 87.6997 76.1703 102.618 71.1242 119.621H228.876C223.83 102.618 213.425 87.6997 199.211 77.0902C184.998 66.4807 167.737 60.7477 150 60.7454V60.7454Z" fill="white"/>
</g>
<defs>
<clipPath id="clip0">
<rect width="164" height="164" fill="white" transform="translate(68 61)"/>
</clipPath>
</defs>
</svg>
