<svg width="9" height="9" viewBox="0 0 9 9" fill="none" xmlns="http://www.w3.org/2000/svg">
    <path d="M3 7.5C3 8.32843 2.32843 9 1.5 9C0.671573 9 0 8.32843 0 7.5C0 6.67157 0.671573 6 1.5 6C2.32843 6 3 6.67157 3 7.5Z"
          fill="#4EAD33"/>
    <path d="M9 7.5C9 8.32843 8.32843 9 7.5 9C6.67157 9 6 8.32843 6 7.5C6 6.67157 6.67157 6 7.5 6C8.32843 6 9 6.67157 9 7.5Z"
          fill="#4EAD33"/>
    <path d="M9 1.5C9 2.32843 8.32843 3 7.5 3C6.67157 3 6 2.32843 6 1.5C6 0.671573 6.67157 0 7.5 0C8.32843 0 9 0.671573 9 1.5Z"
          fill="#4EAD33"/>
    <path d="M3 1.5C3 2.32843 2.32843 3 1.5 3C0.671573 3 0 2.32843 0 1.5C0 0.671573 0.671573 0 1.5 0C2.32843 0 3 0.671573 3 1.5Z"
          fill="#4EAD33"/>
</svg>
