<svg width="20" height="12" viewBox="0 0 20 12" fill="none" xmlns="http://www.w3.org/2000/svg">
<g clip-path="url(#clip0)">
<path d="M14.21 0.25C13.0639 0.253622 11.9454 0.602064 11 1.25C11.7899 1.77932 12.4374 2.49505 12.8851 3.33395C13.3328 4.17285 13.567 5.10911 13.567 6.06C13.567 7.01089 13.3328 7.94715 12.8851 8.78605C12.4374 9.62495 11.7899 10.3407 11 10.87C11.7526 11.3675 12.6111 11.6823 13.5069 11.7892C14.4027 11.8961 15.3112 11.7922 16.1597 11.4857C17.0083 11.1793 17.7734 10.6787 18.3942 10.0241C19.015 9.36946 19.4743 8.57881 19.7353 7.71521C19.9963 6.8516 20.052 5.93895 19.8977 5.05005C19.7435 4.16114 19.3836 3.32058 18.8469 2.59541C18.3102 1.87024 17.6114 1.28053 16.8063 0.873316C16.0013 0.466103 15.1122 0.252656 14.21 0.25Z" fill="black"/>
<path d="M8.99997 1.2299C8.05458 0.581959 6.93608 0.233517 5.78997 0.229896C4.40164 0.219603 3.05584 0.708516 1.99785 1.60752C0.939857 2.50653 0.240128 3.75577 0.0261953 5.12756C-0.187737 6.49934 0.0983722 7.90233 0.832375 9.0808C1.56638 10.2593 2.6994 11.1348 4.02494 11.5477C5.35047 11.9606 6.78025 11.8835 8.05369 11.3304C9.32712 10.7773 10.3594 9.78506 10.9624 8.53448C11.5654 7.2839 11.699 5.85829 11.3388 4.51747C10.9785 3.17665 10.1485 2.0099 8.99997 1.2299Z" fill="black"/>
</g>
<defs>
<clipPath id="clip0">
<rect width="20" height="11.82" fill="white"/>
</clipPath>
</defs>
</svg>
