<svg width="14" height="20" viewBox="0 0 14 20" fill="none" xmlns="http://www.w3.org/2000/svg">
<g clip-path="url(#clip0)">
<path d="M12.14 15.88C11.1338 16.8404 9.84878 17.4566 8.46999 17.64V20H5.46999V17.74C4.4549 17.6885 3.4487 17.5242 2.46999 17.25C1.61806 17.0389 0.802406 16.7019 0.0499878 16.25L1.66999 12.59C2.41473 13.0289 3.21529 13.3652 4.04999 13.59C4.85415 13.8389 5.68852 13.9768 6.52999 14C7.03173 14.0151 7.53145 13.9301 7.99999 13.75C8.12858 13.71 8.24129 13.6305 8.32209 13.5228C8.40288 13.4151 8.44764 13.2846 8.44999 13.15C8.44999 12.84 8.24999 12.6 7.85999 12.45C7.25428 12.2291 6.63243 12.0553 5.99999 11.93C5.02628 11.7417 4.06719 11.4844 3.12999 11.16C2.35937 10.8824 1.6714 10.4146 1.12999 9.8C0.5142 9.08889 0.192385 8.16993 0.229988 7.23C0.219669 6.62665 0.335286 6.02777 0.569456 5.47162C0.803625 4.91546 1.1512 4.41426 1.58999 4C2.66504 3.02802 4.02666 2.43143 5.46999 2.3V0H8.46999V2.28C9.98158 2.37515 11.455 2.79466 12.79 3.51L11.28 7.15C10.0067 6.44481 8.58465 6.05075 7.12999 6C5.83999 6 5.18999 6.35 5.18999 7C5.18999 7.3 5.37999 7.52 5.76999 7.67C6.38568 7.88183 7.01783 8.04237 7.65999 8.15C8.6343 8.31777 9.59392 8.56186 10.53 8.88C11.2969 9.15997 11.9835 9.62347 12.53 10.23C13.1388 10.9395 13.4505 11.8565 13.4 12.79C13.4059 13.3629 13.2975 13.9313 13.0812 14.4619C12.8648 14.9925 12.5449 15.4746 12.14 15.88V15.88Z" fill="black"/>
</g>
<defs>
<clipPath id="clip0">
<rect width="13.43" height="20" fill="white"/>
</clipPath>
</defs>
</svg>
