<svg width="18" height="20" viewBox="0 0 18 20" fill="none" xmlns="http://www.w3.org/2000/svg">
<g clip-path="url(#clip0)">
<path d="M15.85 5.3L9 11V2C7.78075 2.00299 6.57503 2.25563 5.45713 2.74234C4.33924 3.22905 3.33286 3.93954 2.5 4.83V4.83C1.46364 5.88851 0.704587 7.18647 0.290192 8.6087C-0.124202 10.0309 -0.181123 11.5335 0.124479 12.983C0.430081 14.4325 1.08876 15.7842 2.04206 16.9181C2.99536 18.0519 4.21382 18.933 5.5893 19.483C6.96479 20.033 8.45478 20.235 9.92705 20.071C11.3993 19.9071 12.8084 19.3822 14.0291 18.543C15.2499 17.7039 16.2447 16.5764 16.9252 15.2605C17.6056 13.9447 17.9508 12.4812 17.93 11C17.9266 8.91486 17.1903 6.89727 15.85 5.3V5.3Z" fill="black"/>
<path d="M16.81 3.23002C15.9708 2.21686 14.9179 1.40187 13.7267 0.843447C12.5355 0.285027 11.2356 -0.00299424 9.92 2.34703e-05V9.00002L16.81 3.23002Z" fill="black"/>
</g>
<defs>
<clipPath id="clip0">
<rect width="18" height="20" fill="white"/>
</clipPath>
</defs>
</svg>
