<svg width="20" height="20" viewBox="0 0 20 20" fill="none" xmlns="http://www.w3.org/2000/svg">
<g clip-path="url(#clip0)">
<path d="M10 0C8.02219 0 6.08879 0.58649 4.4443 1.6853C2.79981 2.78412 1.51808 4.3459 0.761205 6.17317C0.00432903 8.00043 -0.193704 10.0111 0.192148 11.9509C0.578 13.8907 1.53041 15.6725 2.92893 17.0711C4.32746 18.4696 6.10929 19.422 8.0491 19.8079C9.98891 20.1937 11.9996 19.9957 13.8268 19.2388C15.6541 18.4819 17.2159 17.2002 18.3147 15.5557C19.4135 13.9112 20 11.9778 20 10C20 7.34784 18.9464 4.8043 17.0711 2.92893C15.1957 1.05357 12.6522 0 10 0V0ZM10 14C9.20888 14 8.43552 13.7654 7.77772 13.3259C7.11992 12.8864 6.60723 12.2616 6.30448 11.5307C6.00173 10.7998 5.92252 9.99556 6.07686 9.21964C6.2312 8.44371 6.61216 7.73098 7.17157 7.17157C7.73098 6.61216 8.44372 6.2312 9.21964 6.07686C9.99556 5.92252 10.7998 6.00173 11.5307 6.30448C12.2616 6.60723 12.8864 7.11992 13.3259 7.77772C13.7654 8.43552 14 9.20887 14 10C14 11.0609 13.5786 12.0783 12.8284 12.8284C12.0783 13.5786 11.0609 14 10 14Z" fill="black"/>
</g>
<defs>
<clipPath id="clip0">
<rect width="20" height="20" fill="white"/>
</clipPath>
</defs>
</svg>
