<svg width="20" height="20" viewBox="0 0 20 20" fill="none" xmlns="http://www.w3.org/2000/svg">
<g clip-path="url(#clip0)">
<path d="M20 17.58L14.7 12.28C14.0944 13.2654 13.2654 14.0944 12.28 14.7L17.58 20L20 17.58Z" fill="black"/>
<path d="M7.39998 6.75737e-06C5.48314 0.0704591 3.66831 0.881464 2.33713 2.26247C1.00595 3.64348 0.262146 5.48688 0.262146 7.40501C0.262146 9.32314 1.00595 11.1665 2.33713 12.5475C3.66831 13.9285 5.48314 14.7396 7.39998 14.81C8.66342 14.805 9.90477 14.4782 11.007 13.8606C12.1092 13.243 13.036 12.3549 13.7 11.28C14.4257 10.116 14.8103 8.77172 14.81 7.40001C14.81 6.42738 14.6182 5.4643 14.2457 4.56584C13.8732 3.66738 13.3272 2.85116 12.639 2.16388C11.9508 1.47659 11.1339 0.931722 10.2349 0.560425C9.33594 0.189129 8.3726 -0.0013076 7.39998 6.75737e-06V6.75737e-06ZM3.39998 7.40001C3.39998 6.60888 3.63457 5.83552 4.0741 5.17773C4.51363 4.51993 5.13834 4.00724 5.86924 3.70449C6.60015 3.40174 7.40442 3.32252 8.18034 3.47687C8.95626 3.63121 9.669 4.01217 10.2284 4.57158C10.7878 5.13099 11.1688 5.84372 11.3231 6.61965C11.4775 7.39557 11.3982 8.19984 11.0955 8.93074C10.7927 9.66164 10.2801 10.2864 9.62226 10.7259C8.96446 11.1654 8.1911 11.4 7.39998 11.4C6.34258 11.3947 5.3303 10.971 4.58447 10.2214C3.83865 9.47181 3.41997 8.45742 3.41998 7.40001H3.39998Z" fill="black"/>
</g>
<defs>
<clipPath id="clip0">
<rect width="20" height="20" fill="white"/>
</clipPath>
</defs>
</svg>
