<svg width="20" height="18" viewBox="0 0 20 18" fill="none" xmlns="http://www.w3.org/2000/svg">
<path d="M10 9C12.4853 9 14.5 6.98528 14.5 4.5C14.5 2.01472 12.4853 0 10 0C7.51472 0 5.5 2.01472 5.5 4.5C5.5 6.98528 7.51472 9 10 9Z" fill="black"/>
<path d="M4.5 18C6.98528 18 9 15.9853 9 13.5C9 11.0147 6.98528 9 4.5 9C2.01472 9 0 11.0147 0 13.5C0 15.9853 2.01472 18 4.5 18Z" fill="black"/>
<path d="M15.5 18C17.9853 18 20 15.9853 20 13.5C20 11.0147 17.9853 9 15.5 9C13.0147 9 11 11.0147 11 13.5C11 15.9853 13.0147 18 15.5 18Z" fill="black"/>
</svg>
