<svg width="137" height="36" viewBox="0 0 137 36" fill="none" xmlns="http://www.w3.org/2000/svg">
<path d="M10.6848 0C12.7351 0 14.5212 0.334555 16.0431 1.00366C17.565 1.67277 18.7381 2.63462 19.5624 3.88919C20.3868 5.14377 20.7989 6.60745 20.7989 8.28022C20.7989 9.95299 20.3868 11.4167 19.5624 12.6712C18.7381 13.9258 17.565 14.8877 16.0431 15.5568C14.5212 16.2259 12.7351 16.5604 10.6848 16.5604H7.48254V21.9551H0V0H10.6848ZM10.2092 10.8521C11.2238 10.8521 11.9848 10.6326 12.492 10.1935C12.9993 9.73344 13.253 9.0957 13.253 8.28022C13.253 7.46474 12.9993 6.83745 12.492 6.39835C11.9848 5.93834 11.2238 5.70833 10.2092 5.70833H7.48254V10.8521H10.2092Z" fill="#1D1D1B"/>
<path d="M58.1926 16.3723V21.9551H39.7399V0H57.7804V5.58288H47.0956V8.15476H56.4805V13.4867H47.0956V16.3723H58.1926Z" fill="#1D1D1B"/>
<path d="M88.2449 0C90.2952 0 92.0812 0.334555 93.6031 1.00366C95.125 1.67277 96.2981 2.63462 97.1224 3.88919C97.9468 5.14377 98.359 6.60745 98.359 8.28022C98.359 9.95299 97.9468 11.4167 97.1224 12.6712C96.2981 13.9258 95.125 14.8877 93.6031 15.5568C92.0812 16.2259 90.2952 16.5604 88.2449 16.5604H85.0426V21.9551H77.56V0H88.2449ZM87.7693 10.8521C88.7839 10.8521 89.5448 10.6326 90.0521 10.1935C90.5594 9.73344 90.813 9.0957 90.813 8.28022C90.813 7.46474 90.5594 6.83745 90.0521 6.39835C89.5448 5.93834 88.7839 5.70833 87.7693 5.70833H85.0426V10.8521H87.7693Z" fill="#1D1D1B"/>
<path d="M115.045 28.1026H137V35.1282H115.045V28.1026Z" fill="#4EAD33"/>
</svg>
