<svg width="197" height="51" viewBox="0 0 197 51" fill="none" xmlns="http://www.w3.org/2000/svg">
<g clip-path="url(#clip0)">
<path d="M53.585 27.0664C53.585 17.9189 60.0953 11.1523 69.36 11.1523C78.4995 11.1523 85.135 17.9189 85.135 27.0664C85.135 36.2138 78.6247 42.9804 69.36 42.9804C60.0953 42.9804 53.585 36.3391 53.585 27.0664ZM79.5011 27.0664C79.5011 20.6757 75.4947 15.914 69.36 15.914C63.1001 15.914 59.2189 20.6757 59.2189 27.0664C59.2189 33.3317 63.2253 38.2187 69.36 38.2187C75.4947 38.2187 79.5011 33.457 79.5011 27.0664Z" fill="#060101"/>
<path d="M87.3887 27.0664C87.3887 17.543 94.3998 11.1523 103.539 11.1523C109.674 11.1523 113.555 14.285 115.809 18.0442L111.302 20.4251C109.799 17.7936 106.794 15.914 103.539 15.914C97.4046 15.914 92.8974 20.5504 92.8974 27.0664C92.8974 33.457 97.4046 38.2187 103.539 38.2187C106.794 38.2187 109.799 36.3391 111.302 33.7076L115.934 35.9632C113.555 39.5971 109.799 42.9804 103.539 42.9804C94.3998 42.9804 87.3887 36.5897 87.3887 27.0664Z" fill="#060101"/>
<path d="M115.934 27.0664C115.934 17.543 122.945 11.1523 132.085 11.1523C138.219 11.1523 142.101 14.285 144.354 18.0442L139.847 20.4251C138.345 17.7936 135.34 15.914 132.085 15.914C125.95 15.914 121.443 20.5504 121.443 27.0664C121.443 33.457 125.95 38.2187 132.085 38.2187C135.34 38.2187 138.345 36.3391 139.847 33.7076L144.479 35.9632C142.101 39.5971 138.345 42.9804 132.085 42.9804C122.945 42.9804 115.934 36.5897 115.934 27.0664Z" fill="#060101"/>
<path d="M164.761 42.4794L158 30.9511H152.617V42.4794H147.233V11.6538H160.755C166.89 11.6538 170.896 15.5383 170.896 21.3025C170.896 26.6907 167.265 29.698 163.509 30.3246L171.021 42.354H164.761V42.4794ZM165.262 21.3025C165.262 18.2951 163.008 16.4155 160.004 16.4155H152.617V26.1894H160.004C163.008 26.1894 165.262 24.3098 165.262 21.3025Z" fill="#060101"/>
<path d="M173.776 42.4794V11.6538H187.297C193.808 11.6538 197.313 16.0396 197.313 21.3025C197.313 26.5654 193.682 30.9511 187.297 30.9511H179.159V42.4794H173.776ZM191.804 21.3025C191.804 18.2951 189.676 16.4155 186.546 16.4155H179.159V26.1894H186.546C189.551 26.1894 191.804 24.3098 191.804 21.3025Z" fill="#060101"/>
<path d="M9.13965 23.8083C10.7672 27.8182 12.2696 32.0786 13.3964 36.2137C16.6516 35.086 20.0319 33.8329 23.1619 32.2039C21.4091 28.3194 19.2807 24.5602 16.902 20.9263C14.398 22.1793 11.7688 23.0565 9.13965 23.8083Z" fill="#060101"/>
<path d="M0 41.9778V51C3.25517 51 8.63871 49.9975 14.6483 47.9926C14.0223 44.8599 13.2711 41.7272 12.3947 38.4692C8.13792 39.9729 3.88116 41.1007 0 41.9778Z" fill="#060101"/>
<path d="M0.625994 10.7764C0.375596 10.9017 0.250397 10.9017 0 10.9017V24.1842C2.00318 23.8083 4.38196 23.4324 6.76073 22.8059C5.00795 18.6707 2.87957 14.6609 0.625994 10.7764Z" fill="#060101"/>
<path d="M23.5375 15.6634C20.2823 11.9042 16.6516 8.39555 12.8956 5.38818C11.6436 6.26533 10.3916 7.01718 9.13965 7.76902C12.2696 11.2776 15.2744 15.0368 17.9036 19.0467C19.9067 18.0442 21.7847 16.9164 23.5375 15.6634Z" fill="#060101"/>
<path d="M7.51192 24.3096C4.88275 25.0614 2.37878 25.5626 0 25.9386V39.973C3.63076 39.2211 7.76232 38.0934 11.8939 36.8403C10.6419 32.5798 9.13951 28.4447 7.51192 24.3096Z" fill="#060101"/>
<path d="M18.5293 20.1744C20.7829 23.8083 22.9113 27.5676 24.664 31.4521C27.168 30.0737 29.5468 28.6953 31.6752 26.941C29.5468 23.3071 27.0428 19.7985 24.2884 16.5405C22.5357 17.9189 20.6577 19.172 18.5293 20.1744Z" fill="#060101"/>
<path d="M44.6961 30.7002C45.6977 29.4471 46.5741 28.3193 47.2001 27.0663C45.8229 23.4323 43.9449 20.1744 41.8166 17.167C41.1906 18.5454 40.4394 19.9237 39.563 21.1768C41.441 24.1842 43.1938 27.4422 44.6961 30.7002Z" fill="#060101"/>
<path d="M28.9207 11.7788C28.0443 13.1572 26.9175 14.285 25.6655 15.4127C28.4199 18.6707 30.9239 22.1793 33.0523 25.8132C34.6798 24.4348 36.057 22.9311 37.309 21.4275C34.9302 17.9189 32.0507 14.6609 28.9207 11.7788Z" fill="#060101"/>
<path d="M38.5611 19.9237C39.4375 18.6707 40.1887 17.2923 40.6895 15.9139C38.0603 12.5306 34.8051 9.52323 31.1744 7.01709C30.7988 8.14485 30.4232 9.14731 29.9224 10.1498C33.1775 13.0318 36.0571 16.4151 38.5611 19.9237Z" fill="#060101"/>
<path d="M16.1506 19.7983C13.5214 15.7885 10.5166 12.0293 7.38666 8.646C5.75907 9.27253 4.13149 9.89907 2.50391 10.275C4.75748 14.1595 6.76066 18.1693 8.51345 22.3045C11.0174 21.6779 13.6466 20.8008 16.1506 19.7983Z" fill="#060101"/>
<path d="M25.29 32.9555C26.542 36.0882 27.6688 39.2209 28.5452 42.3536C31.4248 40.9752 34.1791 39.3462 36.6831 37.5919C35.5563 34.3339 34.1791 31.2012 32.4264 28.1938C30.298 30.0735 27.9192 31.5771 25.29 32.9555Z" fill="#060101"/>
<path d="M13.897 38.0934C14.7734 41.2261 15.5246 44.4841 16.1505 47.6168C19.6561 46.3637 23.4121 44.9853 27.0428 43.231C26.1664 40.0984 25.1649 36.9657 23.7877 33.833C20.6577 35.462 17.2773 36.8404 13.897 38.0934Z" fill="#060101"/>
<path d="M24.9146 14.5356C26.1665 13.4078 27.1681 12.2801 28.0445 11.027C24.2886 7.6437 20.157 4.51103 15.775 2.00488C15.2742 2.75673 14.7735 3.50857 14.1475 4.1351C18.0286 7.26778 21.6594 10.6511 24.9146 14.5356Z" fill="#060101"/>
<path d="M29.0463 9.27273C29.4219 8.64619 29.6723 7.89435 29.7975 7.14251C29.9227 6.89189 30.1731 6.51597 30.4235 6.39066C26.4172 3.75921 21.7848 1.50369 16.7769 0V0.125307C21.1588 2.75676 25.2904 5.76413 29.0463 9.27273Z" fill="#060101"/>
<path d="M33.8037 27.1917C35.5565 30.3244 36.9337 33.4571 38.0605 36.7151C40.0636 35.3367 41.8164 33.7077 43.3188 32.204C41.9416 28.8207 40.1888 25.688 38.1857 22.6807C36.9337 24.3097 35.4313 25.8133 33.8037 27.1917Z" fill="#060101"/>
</g>
<defs>
<clipPath id="clip0">
<rect width="197" height="51" fill="white"/>
</clipPath>
</defs>
</svg>
