<svg width="45" height="165" viewBox="0 0 45 165" fill="none" xmlns="http://www.w3.org/2000/svg">
<g clip-path="url(#clip0)">
<path d="M-7.21238e-06 0L0 165L45 165L45 -1.96701e-06L-7.21238e-06 0Z" fill="black"/>
<path d="M25.2561 24.5777L33.1737 24.5777L33.1737 26.7257L29.5657 29.723L33.1737 29.723L33.1737 32.3206L25.2561 32.3206L25.2561 30.1226L28.8641 27.1753L25.2561 27.1753L25.2561 24.5777Z" fill="white"/>
<path d="M28.2628 75.7811C30.0668 75.7811 31.2194 77.1798 31.2194 79.3778L31.2194 80.5268L33.1737 80.5268L33.1737 83.1744L25.2561 83.1744L25.2561 79.3778C25.2561 77.1798 26.4087 75.7811 28.2628 75.7811ZM28.2628 78.4287C27.7116 78.4287 27.3608 78.7784 27.3608 79.5277L27.3608 80.4768L29.2149 80.4768L29.2149 79.5277C29.1648 78.7784 28.814 78.4287 28.2628 78.4287Z" fill="white"/>
<path d="M17.539 146.317L19.6437 146.317L19.6437 153.51L17.99 153.51L13.7806 149.914L13.7806 153.411L11.7261 153.411L11.7261 146.467L13.3797 146.467L17.539 150.064L17.539 146.317Z" fill="white"/>
<path d="M17.5891 131.73L19.6437 131.73L19.6437 138.274L11.7261 138.274L11.7261 131.88L13.7305 131.88L13.7305 135.677L14.6325 135.677L14.6325 132.33L16.5869 132.33L16.5869 135.677L17.5891 135.677L17.5891 131.73Z" fill="white"/>
<path d="M29.2148 153.51C26.8095 153.51 25.1057 151.662 25.1057 149.114C25.1057 147.566 25.6569 146.367 26.7093 145.568L28.2126 147.266C27.6113 147.716 27.3106 148.265 27.3106 148.965C27.3106 150.064 28.0623 150.813 29.265 150.813C30.4676 150.813 31.2193 150.064 31.2193 148.965C31.2193 148.265 30.8685 147.716 30.3173 147.266L31.8206 145.568C32.8229 146.367 33.4242 147.566 33.4242 149.114C33.324 151.662 31.6202 153.51 29.2148 153.51Z" fill="white"/>
<path d="M29.2148 139.473C26.8095 139.473 25.1057 137.575 25.1057 135.027C25.1057 132.48 26.8596 130.581 29.2148 130.581C31.6202 130.581 33.324 132.48 33.324 135.027C33.324 137.575 31.6202 139.473 29.2148 139.473ZM29.2148 133.229C27.9621 133.229 27.2605 134.028 27.2605 134.977C27.2605 135.926 28.0122 136.726 29.2148 136.726C30.4676 136.726 31.1692 135.926 31.1692 134.977C31.1692 134.028 30.4676 133.229 29.2148 133.229Z" fill="white"/>
<path d="M17.6392 121.04L17.6392 121.739L19.6437 121.739L19.6437 124.387L11.7261 124.387L11.7261 120.59C11.7261 118.392 12.8786 116.994 14.6826 116.994C15.8352 116.994 16.6871 117.543 17.1882 118.492L19.6437 116.844L19.6437 119.691L17.6392 121.04ZM13.7806 120.79L13.7806 121.739L15.6348 121.739L15.6348 120.79C15.6348 120.041 15.284 119.691 14.7328 119.691C14.1815 119.691 13.7806 120.041 13.7806 120.79Z" fill="white"/>
<path d="M15.6848 111.349C13.2795 111.349 11.5757 109.45 11.5757 106.903C11.5757 104.355 13.3296 102.457 15.6848 102.457C18.0902 102.457 19.7939 104.355 19.7939 106.903C19.7939 109.45 18.04 111.349 15.6848 111.349ZM15.6848 105.154C14.432 105.154 13.7305 105.954 13.7305 106.903C13.7305 107.902 14.4821 108.651 15.6848 108.651C16.9376 108.651 17.6392 107.852 17.6392 106.903C17.6392 105.954 16.8875 105.154 15.6848 105.154Z" fill="white"/>
<path d="M31.1692 121.04L31.1692 121.739L33.1737 121.739L33.1737 124.387L25.2561 124.387L25.2561 120.59C25.2561 118.392 26.4087 116.994 28.2127 116.994C29.3652 116.994 30.2171 117.543 30.7182 118.492L33.1737 116.844L33.1737 119.691L31.1692 121.04ZM27.3107 120.79L27.3107 121.739L29.1648 121.739L29.1648 120.79C29.1648 120.041 28.814 119.691 28.2628 119.691C27.6614 119.691 27.3107 120.041 27.3107 120.79Z" fill="white"/>
<path d="M31.1692 107.302L31.1692 108.052L33.1737 108.052L33.1737 110.699L25.2561 110.699L25.2561 106.903C25.2561 104.705 26.4087 103.306 28.2127 103.306C29.3652 103.306 30.2171 103.856 30.7182 104.805L33.1737 103.156L33.1737 106.004L31.1692 107.302ZM27.3107 107.053L27.3107 108.052L29.1648 108.052L29.1648 107.103C29.1648 106.353 28.814 106.004 28.2628 106.004C27.6614 106.004 27.3107 106.353 27.3107 107.053Z" fill="white"/>
<path d="M29.6158 96.9619L25.2561 96.9619L25.2561 94.3143L29.5156 94.3143C30.7182 94.3143 31.1692 93.8647 31.1692 93.1153C31.1692 92.366 30.7182 91.9164 29.5156 91.9164L25.2561 91.9164L25.2561 89.3188L29.6158 89.3188C31.971 89.3188 33.3741 90.7175 33.3741 93.1653C33.324 95.5631 31.971 96.9619 29.6158 96.9619Z" fill="white"/>
<path d="M27.3107 67.2888L27.3107 69.6367L25.2561 69.6367L25.2561 62.3433L27.3107 62.3433L27.3107 64.6413L33.1737 64.6413L33.1737 67.2888L27.3107 67.2888Z" fill="white"/>
<path d="M25.2561 53.5513L25.2561 56.1989L33.1737 56.1989L33.1737 53.5513L25.2561 53.5513Z" fill="white"/>
<path d="M29.2148 47.3569C26.8095 47.3569 25.1057 45.4587 25.1057 42.911C25.1057 40.3633 26.8596 38.465 29.2148 38.465C31.6202 38.465 33.324 40.3633 33.324 42.911C33.324 45.5086 31.6202 47.3569 29.2148 47.3569ZM29.2148 41.1626C27.9621 41.1626 27.2605 41.9618 27.2605 42.911C27.2605 43.9101 28.0122 44.6594 29.2148 44.6594C30.4676 44.6594 31.1692 43.8601 31.1692 42.911C31.1692 41.9618 30.4676 41.1626 29.2148 41.1626Z" fill="white"/>
<path d="M35.98 11.6394L35.98 19.5322L38.6359 19.5322L38.6359 11.6394L35.98 11.6394Z" fill="#E20613"/>
</g>
<defs>
<clipPath id="clip0">
<rect width="165" height="45" fill="white" transform="translate(0 165) rotate(-90)"/>
</clipPath>
</defs>
</svg>
